<?xml version="1.0" encoding="UTF-8"?>
<svg id="Layer_2" xmlns="http://www.w3.org/2000/svg" version="1.1" viewBox="0 0 2400 2400">
  <!-- Generator: Adobe Illustrator 29.5.1, SVG Export Plug-In . SVG Version: 2.1.0 Build 141)  -->
  <defs>
    <style>
      .st0 {
        fill: #231f20;
      }
    </style>
  </defs>
  <path class="st0" d="M157.75,803.94V0h192.95v303.2h259.56V0h192.95v803.94h-192.95v-326.17h-259.56v326.17h-192.95Z"/>
  <path class="st0" d="M842.24,803.94L1019.11,0h374.41l176.87,803.94h-204.43l-33.3-172.27h-252.67l-33.3,172.27h-204.43ZM1104.09,492.7h204.43l-66.61-339.95h-71.21l-66.61,339.95Z"/>
  <path class="st0" d="M1609.42,663.82V0h192.95v629.37h250.37V0h192.95v663.82l-140.12,140.12h-356.03l-140.12-140.12Z"/>
  <path class="st0" d="M157.35,1601.97v-167.68h435.68v-150.45l-438.72-37.9v-314.69l133.22-133.22h516.52v167.68h-456.8v138.97l438.72,37.9v326.17l-133.22,133.22H157.35Z"/>
  <path class="st0" d="M1480.64,931.25v189.5l-67.76,56.27,90.73,75.8v215.92l-133.23,133.22h-528.3v-803.94h505.33l133.22,133.22ZM1035.03,1123.05h249.22v-171.13h-249.22v171.13ZM1035.03,1448.07h268.75v-191.8h-268.75v191.8Z"/>
  <path class="st0" d="M1624.63,1601.97v-803.94h192.95v643.15h258.14v-160.79h169.98v321.58h-621.06Z"/>
  <path class="st0" d="M157.75,2400v-803.94h565.06v160.79h-372.11v156.19h314.68v153.9h-314.68v172.27h383.59v160.79H157.75Z"/>
  <path class="st0" d="M841.49,2400v-803.94h182.61l308.94,511.08v-511.08h179.16v803.94h-182.61l-308.94-511.08v511.08h-179.16Z"/>
  <path class="st0" d="M1623.2,2400v-803.94h482.37l140.11,140.12v523.71l-140.11,140.12h-482.37ZM1816.15,2232.32h236.59v-468.58h-236.59v468.58Z"/>
</svg>